# xmcd
#
# Track frame offsets:
#	150
#	14546
#	34042
#	45380
#	65451
#	88147
#	102772
#	113973
#	125657
#	139491
#	155393
#	173463
#	188425
#
# Disc length: 2729 seconds
#
# Revision: 0
# Processed by: cddbd v1.5PL3 Copyright (c) Steve Scherf et al.
# Submitted via: MusicManager 7.0.4.0 
#
DISCID=a60aa70d
DTITLE=AUSTIN OLLIE - OLD RIVERS
DYEAR=1900
DGENRE=country
TTITLE0=IT AIN'T ME BABE
TTITLE1=RADIO LOVERS
TTITLE2=RIBBON OF DARKNESS
TTITLE3=YOUR GUITAR MAN
TTITLE4=DANCE WITH ME MOLLY
TTITLE5=THE FUGITIVE
TTITLE6=TALK THINGS OVER
TTITLE7=TURN OUT THE LIGHTS
TTITLE8=GIRLS, WOMAN and LADIES
TTITLE9=OLD RIVERS
TTITLE10=SUN AIN'T COME UP YET THIS MORNING
TTITLE11=I NEED SOMEONE TO HOLD ME
TTITLE12=MASON'S JAR
EXTD=
EXTT0=
EXTT1=
EXTT2=
EXTT3=
EXTT4=
EXTT5=
EXTT6=
EXTT7=
EXTT8=
EXTT9=
EXTT10=
EXTT11=
EXTT12=
PLAYORDER=
